<svg width="115" height="83" viewBox="0 0 115 83" fill="none" xmlns="http://www.w3.org/2000/svg">
<path d="M33.4336 5.41257C35.1673 5.41257 36.6823 5.764 37.9787 6.46686C39.2907 7.16971 40.2982 8.1459 41.001 9.39543C41.7039 10.645 42.0553 12.0663 42.0553 13.6594C42.0553 15.237 41.7039 16.6583 41.001 17.9234C40.2982 19.1886 39.2907 20.1882 37.9787 20.9223C36.6823 21.6408 35.1673 22 33.4336 22H26.5222V5.41257H33.4336ZM32.965 17.3611C34.1364 17.3611 35.0658 17.041 35.753 16.4006C36.4402 15.7602 36.7839 14.8465 36.7839 13.6594C36.7839 12.4724 36.4402 11.5587 35.753 10.9183C35.0658 10.2779 34.1364 9.95771 32.965 9.95771H31.7233V17.3611H32.965ZM50.306 5.41257V22H45.1049V5.41257H50.306ZM64.4631 19.4931H58.9339L58.1139 22H52.6551L58.7231 5.41257H64.7208L70.7654 22H65.2831L64.4631 19.4931ZM63.1979 15.5806L61.6985 10.9651L60.1991 15.5806H63.1979ZM89.0265 22H83.8253L78.3196 13.6594V22H73.1185V5.41257H78.3196L83.8253 13.8937V5.41257H89.0265V22ZM103.184 19.4931H97.6551L96.8351 22H91.3763L97.4443 5.41257H103.442L109.487 22H104.004L103.184 19.4931ZM101.919 15.5806L100.42 10.9651L98.9203 15.5806H101.919ZM46.1876 32.4126V49H41.0099V40.7297L38.4562 49H34.0047L31.451 40.7297V49H26.2499V32.4126H32.6225L36.2773 42.3697L39.8385 32.4126H46.1876ZM57.0156 32.4126V49H51.8145V32.4126H57.0156ZM78.5527 49H73.3516L67.8459 40.6594V49H62.6447V32.4126H67.8459L73.3516 40.8937V32.4126H78.5527V49ZM95.7562 32.4126V43.1194C95.7562 45.103 95.233 46.6103 94.1865 47.6411C93.1557 48.6564 91.7031 49.164 89.8288 49.164C87.814 49.164 86.213 48.6095 85.026 47.5006C83.8389 46.3916 83.2454 44.775 83.2454 42.6509H88.3762C88.3762 43.3225 88.4856 43.7989 88.7042 44.08C88.9229 44.3455 89.2197 44.4783 89.5945 44.4783C89.9069 44.4783 90.149 44.3768 90.3208 44.1737C90.4926 43.9707 90.5785 43.6192 90.5785 43.1194V32.4126H95.7562ZM106.483 32.4126V49H101.282V32.4126H106.483Z" fill="#FEC202"/>
<path d="M25.8142 68.6829C25.8142 67.0429 26.1422 65.5825 26.7982 64.3017C27.4698 63.021 28.4226 62.0291 29.6565 61.3263C30.8904 60.6078 32.343 60.2486 34.0142 60.2486C35.4512 60.2486 36.7319 60.5219 37.8565 61.0686C38.9967 61.5996 39.9182 62.3571 40.6211 63.3411C41.3396 64.3251 41.8159 65.4731 42.0502 66.7851H36.5679C36.318 66.2385 35.9588 65.8168 35.4902 65.52C35.0373 65.2076 34.514 65.0514 33.9205 65.0514C33.0458 65.0514 32.3508 65.3794 31.8354 66.0354C31.3356 66.6914 31.0856 67.5739 31.0856 68.6829C31.0856 69.7918 31.3356 70.6743 31.8354 71.3303C32.3508 71.9863 33.0458 72.3143 33.9205 72.3143C34.514 72.3143 35.0373 72.1659 35.4902 71.8691C35.9588 71.5568 36.318 71.1272 36.5679 70.5806H42.0502C41.8159 71.8926 41.3396 73.0406 40.6211 74.0246C39.9182 75.0086 38.9967 75.7739 37.8565 76.3206C36.7319 76.8516 35.4512 77.1171 34.0142 77.1171C32.343 77.1171 30.8904 76.7657 29.6565 76.0629C28.4226 75.3444 27.4698 74.3448 26.7982 73.064C26.1422 71.7832 25.8142 70.3229 25.8142 68.6829ZM63.72 60.4126V77H58.5189V70.5337H53.5754V77H48.3743V60.4126H53.5754V66.3869H58.5189V60.4126H63.72ZM75.5955 60.4126V69.7606C75.5955 70.5259 75.7595 71.135 76.0875 71.588C76.4312 72.0253 76.9778 72.244 77.7275 72.244C78.4773 72.244 79.0317 72.0253 79.391 71.588C79.7502 71.135 79.9298 70.5259 79.9298 69.7606V60.4126H85.1075V69.7606C85.1075 71.3381 84.7795 72.6891 84.1235 73.8137C83.4675 74.9227 82.5694 75.7583 81.4293 76.3206C80.2891 76.8829 79.0161 77.164 77.6104 77.164C76.2047 77.164 74.9552 76.8829 73.8618 76.3206C72.7841 75.7583 71.9407 74.9227 71.3315 73.8137C70.7224 72.7048 70.4178 71.3537 70.4178 69.7606V60.4126H75.5955ZM107.71 77H102.509L97.0034 68.6594V77H91.8023V60.4126H97.0034L102.509 68.8937V60.4126H107.71V77Z" fill="#FEC202"/>
<path d="M8.17321 59.7592C8.5795 57.7685 11.4284 57.7685 11.8347 59.7592L12.1315 61.2135C12.2111 61.6033 12.6748 61.7719 12.9867 61.5243L14.1503 60.6008C15.743 59.3365 17.9254 61.165 16.9551 62.9508L16.2463 64.2553C16.0563 64.605 16.3031 65.0318 16.7014 65.0423L18.1872 65.0816C20.2212 65.1354 20.7159 67.9369 18.823 68.6821L17.4403 69.2264C17.0696 69.3724 16.9839 69.8577 17.2822 70.1214L18.3951 71.1052C19.9186 72.4519 18.4941 74.9154 16.5644 74.2713L15.1547 73.8009C14.7768 73.6747 14.3987 73.9915 14.4575 74.385L14.6767 75.8529C14.9768 77.8623 12.2997 78.8352 11.236 77.1033L10.459 75.8381C10.2507 75.499 9.75718 75.499 9.54888 75.8381L8.77185 77.1033C7.70817 78.8352 5.03109 77.8623 5.33119 75.8529L5.55042 74.385C5.60919 73.9915 5.23112 73.6747 4.85322 73.8009L3.4435 74.2713C1.51375 74.9154 0.0893017 72.4519 1.61277 71.1052L2.72568 70.1214C3.02402 69.8577 2.93832 69.3724 2.56764 69.2264L1.18487 68.6821C-0.708007 67.9369 -0.213301 65.1354 1.82068 65.0816L3.30653 65.0423C3.70484 65.0318 3.95161 64.605 3.76159 64.2553L3.05277 62.9508C2.08247 61.165 4.26485 59.3365 5.85763 60.6008L7.02117 61.5243C7.33308 61.7719 7.79685 61.6033 7.87641 61.2135L8.17321 59.7592Z" fill="#FF3B01"/>
<path d="M13.5674 44.6993C13.5603 44.7411 12.4059 51.4825 10.1748 51.4825C7.94439 51.4817 6.7907 44.7433 6.7832 44.6993C6.73312 44.6908 0.000849867 43.5371 0 41.3077C2.92427e-07 39.0778 6.73505 37.9234 6.7832 37.9152C6.79212 37.8629 7.94648 31.132 10.1758 31.132C12.4045 31.1328 13.5581 37.8608 13.5674 37.9152C13.6138 37.9231 20.3506 39.0775 20.3506 41.3077C20.3498 43.5373 13.6164 44.691 13.5674 44.6993Z" fill="#92C159"/>
<path d="M10.3154 4.00022C10.8771 4.00816 11.326 4.46979 11.3184 5.03147L11.2432 10.3908L13.9883 5.78636C14.276 5.30368 14.9011 5.14613 15.3838 5.43382C15.8661 5.72163 16.0239 6.34583 15.7363 6.82835L12.9912 11.4319L17.6719 8.81663C18.1623 8.54271 18.7815 8.7179 19.0557 9.20823C19.3298 9.69871 19.1545 10.3188 18.6641 10.593L14.0801 13.1555H19.333C19.8948 13.1556 20.3506 13.6113 20.3506 14.1731C20.3506 14.7349 19.8948 15.1905 19.333 15.1907H13.9727L18.6152 17.8713C19.1018 18.1523 19.2682 18.7744 18.9873 19.261C18.7063 19.7474 18.0842 19.9139 17.5977 19.633L12.9551 16.9524L15.6357 21.5959C15.9165 22.0825 15.7502 22.7047 15.2637 22.9856C14.7771 23.2665 14.155 23.0991 13.874 22.6125L11.1387 17.8752L11.0635 23.3459C11.0554 23.9075 10.5939 24.3567 10.0322 24.3489C9.4707 24.3409 9.02176 23.8791 9.0293 23.3176L9.10352 17.9553L6.35938 22.5608C6.07171 23.0433 5.44745 23.2018 4.96484 22.9143C4.4823 22.6267 4.32397 22.0024 4.61133 21.5198L7.35645 16.9133L2.67676 19.5295C2.18647 19.8033 1.56718 19.628 1.29297 19.1379C1.01882 18.6475 1.19417 18.0274 1.68457 17.7532L6.26855 15.1907H1.01758C0.455729 15.1906 -2.45599e-08 14.7349 0 14.1731C2.49941e-05 13.6112 0.455744 13.1556 1.01758 13.1555H6.37793L1.73633 10.4758C1.24979 10.1948 1.08333 9.57178 1.36426 9.08518C1.64533 8.599 2.26747 8.43234 2.75391 8.71311L7.39551 11.3938L4.71582 6.7512C4.43497 6.26459 4.60229 5.64248 5.08887 5.36155C5.57542 5.08081 6.19758 5.24715 6.47852 5.73362L9.20801 10.4612L9.28418 5.00315C9.29213 4.44142 9.75367 3.99242 10.3154 4.00022Z" fill="#ADD0EE"/>
</svg>
