<svg width="21" height="21" viewBox="0 0 21 21" fill="none" xmlns="http://www.w3.org/2000/svg">
<path d="M10.3154 0.000222234C10.8771 0.0081577 11.326 0.469793 11.3184 1.03147L11.2432 6.39085L13.9883 1.78636C14.276 1.30368 14.9011 1.14613 15.3838 1.43382C15.8661 1.72163 16.0239 2.34583 15.7363 2.82835L12.9912 7.43186L17.6719 4.81663C18.1623 4.54271 18.7815 4.7179 19.0557 5.20823C19.3298 5.69871 19.1545 6.31883 18.6641 6.593L14.0801 9.1555H19.333C19.8948 9.15562 20.3506 9.61126 20.3506 10.1731C20.3506 10.7349 19.8948 11.1905 19.333 11.1907H13.9727L18.6152 13.8713C19.1018 14.1523 19.2682 14.7744 18.9873 15.261C18.7063 15.7474 18.0842 15.9139 17.5977 15.633L12.9551 12.9524L15.6357 17.5959C15.9165 18.0825 15.7502 18.7047 15.2637 18.9856C14.7771 19.2665 14.155 19.0991 13.874 18.6125L11.1387 13.8752L11.0635 19.3459C11.0554 19.9075 10.5939 20.3567 10.0322 20.3489C9.4707 20.3409 9.02176 19.8791 9.0293 19.3176L9.10352 13.9553L6.35938 18.5608C6.07171 19.0433 5.44745 19.2018 4.96484 18.9143C4.4823 18.6267 4.32397 18.0024 4.61133 17.5198L7.35645 12.9133L2.67676 15.5295C2.18647 15.8033 1.56718 15.628 1.29297 15.1379C1.01882 14.6475 1.19417 14.0274 1.68457 13.7532L6.26855 11.1907H1.01758C0.455729 11.1906 -2.45599e-08 10.7349 0 10.1731C2.49941e-05 9.61123 0.455744 9.15556 1.01758 9.1555H6.37793L1.73633 6.47581C1.24979 6.19482 1.08333 5.57178 1.36426 5.08518C1.64533 4.599 2.26747 4.43234 2.75391 4.71311L7.39551 7.39378L4.71582 2.7512C4.43497 2.26459 4.60229 1.64248 5.08887 1.36155C5.57542 1.08081 6.19758 1.24715 6.47852 1.73362L9.20801 6.46116L9.28418 1.00315C9.29213 0.441425 9.75367 -0.00758007 10.3154 0.000222234Z" fill="#ADD0EE"/>
</svg>
