<svg width="84" height="72" viewBox="0 0 84 72" fill="none" xmlns="http://www.w3.org/2000/svg">
<path d="M7.61936 0C9.35308 0 10.8681 0.351428 12.1645 1.05428C13.4765 1.75714 14.4839 2.73333 15.1868 3.98286C15.8896 5.23238 16.2411 6.65371 16.2411 8.24686C16.2411 9.82438 15.8896 11.2457 15.1868 12.5109C14.4839 13.776 13.4765 14.7756 12.1645 15.5097C10.8681 16.2282 9.35308 16.5874 7.61936 16.5874H0.707932V0H7.61936ZM7.15079 11.9486C8.32222 11.9486 9.25155 11.6284 9.93879 10.988C10.626 10.3476 10.9696 9.43391 10.9696 8.24686C10.9696 7.05981 10.626 6.1461 9.93879 5.50571C9.25155 4.86533 8.32222 4.54514 7.15079 4.54514H5.90908V11.9486H7.15079Z" fill="#FEC202"/>
<path d="M24.4918 0V16.5874H19.2906V0H24.4918Z" fill="#FEC202"/>
<path d="M38.6489 14.0806H33.1197L32.2997 16.5874H26.8409L32.9089 0H38.9066L44.9511 16.5874H39.4689L38.6489 14.0806ZM37.3837 10.168L35.8843 5.55257L34.3849 10.168H37.3837Z" fill="#FEC202"/>
<path d="M63.2122 16.5874H58.0111L52.5054 8.24686V16.5874H47.3042V0H52.5054L58.0111 8.48114V0H63.2122V16.5874Z" fill="#FEC202"/>
<path d="M77.3701 14.0806H71.8409L71.0209 16.5874H65.5621L71.6301 0H77.6278L83.6723 16.5874H78.1901L77.3701 14.0806ZM76.1049 10.168L74.6055 5.55257L73.1061 10.168H76.1049Z" fill="#FEC202"/>
<path d="M20.3734 27V43.5874H15.1957V35.3171L12.642 43.5874H8.19053L5.63681 35.3171V43.5874H0.43567V27H6.80824L10.4631 36.9571L14.0242 27H20.3734Z" fill="#FEC202"/>
<path d="M31.2014 27V43.5874H26.0003V27H31.2014Z" fill="#FEC202"/>
<path d="M52.7385 43.5874H47.5373L42.0316 35.2469V43.5874H36.8305V27H42.0316L47.5373 35.4811V27H52.7385V43.5874Z" fill="#FEC202"/>
<path d="M69.942 27V37.7069C69.942 39.6905 69.4188 41.1977 68.3723 42.2286C67.3414 43.2438 65.8889 43.7514 64.0146 43.7514C61.9997 43.7514 60.3988 43.197 59.2117 42.088C58.0247 40.979 57.4312 39.3625 57.4312 37.2383H62.562C62.562 37.9099 62.6714 38.3863 62.89 38.6674C63.1087 38.933 63.4055 39.0657 63.7803 39.0657C64.0927 39.0657 64.3348 38.9642 64.5066 38.7611C64.6784 38.5581 64.7643 38.2067 64.7643 37.7069V27H69.942Z" fill="#FEC202"/>
<path d="M80.6686 27V43.5874H75.4675V27H80.6686Z" fill="#FEC202"/>
<path d="M0 63.2703C0 61.6303 0.328 60.1699 0.984 58.8891C1.65562 57.6084 2.60838 56.6166 3.84229 55.9137C5.07619 55.1952 6.52876 54.836 8.2 54.836C9.63695 54.836 10.9177 55.1093 12.0423 55.656C13.1825 56.187 14.104 56.9446 14.8069 57.9286C15.5253 58.9126 16.0017 60.0606 16.236 61.3726H10.7537C10.5038 60.8259 10.1446 60.4042 9.676 60.1074C9.22305 59.795 8.69981 59.6389 8.10629 59.6389C7.23162 59.6389 6.53657 59.9669 6.02114 60.6229C5.52133 61.2789 5.27143 62.1613 5.27143 63.2703C5.27143 64.3792 5.52133 65.2617 6.02114 65.9177C6.53657 66.5737 7.23162 66.9017 8.10629 66.9017C8.69981 66.9017 9.22305 66.7533 9.676 66.4566C10.1446 66.1442 10.5038 65.7147 10.7537 65.168H16.236C16.0017 66.48 15.5253 67.628 14.8069 68.612C14.104 69.596 13.1825 70.3613 12.0423 70.908C10.9177 71.439 9.63695 71.7046 8.2 71.7046C6.52876 71.7046 5.07619 71.3531 3.84229 70.6503C2.60838 69.9318 1.65562 68.9322 0.984 67.6514C0.328 66.3707 0 64.9103 0 63.2703Z" fill="#FEC202"/>
<path d="M37.9058 55V71.5874H32.7046V65.1211H27.7612V71.5874H22.5601V55H27.7612V60.9743H32.7046V55H37.9058Z" fill="#FEC202"/>
<path d="M49.7813 55V64.348C49.7813 65.1133 49.9453 65.7225 50.2733 66.1754C50.6169 66.6128 51.1636 66.8314 51.9133 66.8314C52.663 66.8314 53.2175 66.6128 53.5768 66.1754C53.936 65.7225 54.1156 65.1133 54.1156 64.348V55H59.2933V64.348C59.2933 65.9255 58.9653 67.2766 58.3093 68.4011C57.6533 69.5101 56.7552 70.3457 55.615 70.908C54.4748 71.4703 53.2019 71.7514 51.7962 71.7514C50.3905 71.7514 49.1409 71.4703 48.0476 70.908C46.9699 70.3457 46.1265 69.5101 45.5173 68.4011C44.9082 67.2922 44.6036 65.9411 44.6036 64.348V55H49.7813Z" fill="#FEC202"/>
<path d="M81.896 71.5874H76.6949L71.1892 63.2469V71.5874H65.988V55H71.1892L76.6949 63.4811V55H81.896V71.5874Z" fill="#FEC202"/>
</svg>
