<svg width="20" height="20" viewBox="0 0 20 20" fill="none" xmlns="http://www.w3.org/2000/svg">
<path d="M8.17321 1.49304C8.5795 -0.497681 11.4284 -0.497681 11.8347 1.49304L12.1315 2.94729C12.2111 3.33714 12.6748 3.50568 12.9867 3.25811L14.1503 2.33458C15.743 1.07036 17.9254 2.89885 16.9551 4.6846L16.2463 5.98911C16.0563 6.33881 16.3031 6.76558 16.7014 6.77612L18.1872 6.81545C20.2212 6.86928 20.7159 9.67068 18.823 10.4159L17.4403 10.9603C17.0696 11.1062 16.9839 11.5915 17.2822 11.8552L18.3951 12.839C19.9186 14.1857 18.4941 16.6492 16.5644 16.0052L15.1547 15.5347C14.7768 15.4086 14.3987 15.7253 14.4575 16.1188L14.6767 17.5867C14.9768 19.5961 12.2997 20.5691 11.236 18.8371L10.459 17.572C10.2507 17.2328 9.75718 17.2328 9.54888 17.572L8.77185 18.8371C7.70817 20.5691 5.03109 19.5961 5.33119 17.5867L5.55042 16.1188C5.60919 15.7253 5.23112 15.4086 4.85322 15.5347L3.4435 16.0052C1.51375 16.6492 0.0893017 14.1857 1.61277 12.839L2.72568 11.8552C3.02402 11.5915 2.93832 11.1062 2.56764 10.9603L1.18487 10.4159C-0.708007 9.67068 -0.213301 6.86928 1.82068 6.81545L3.30653 6.77612C3.70484 6.76558 3.95161 6.33881 3.76159 5.98911L3.05277 4.6846C2.08247 2.89885 4.26485 1.07036 5.85763 2.33458L7.02117 3.25811C7.33308 3.50568 7.79685 3.33714 7.87641 2.94729L8.17321 1.49304Z" fill="#FF3B01"/>
</svg>
