<svg xmlns="http://www.w3.org/2000/svg">

  <symbol id="icon-green-4-star" viewBox="0 0 21 21">
    <path d="M13.5674 13.5674C13.5603 13.6091 12.4059 20.3506 10.1748 20.3506C7.94439 20.3497 6.7907 13.6113 6.7832 13.5674C6.73312 13.5588 0.000849867 12.4052 0 10.1758C2.92427e-07 7.9458 6.73505 6.79142 6.7832 6.7832C6.79212 6.73096 7.94648 0 10.1758 0C12.4045 0.000824531 13.5581 6.72881 13.5674 6.7832C13.6138 6.79113 20.3506 7.94551 20.3506 10.1758C20.3498 12.4054 13.6164 13.559 13.5674 13.5674Z" fill="#92C159"/>
  </symbol>

  <symbol id="icon-red-flower" viewBox="0 0 20 20">
    <path d="M8.17321 1.49304C8.5795 -0.497681 11.4284 -0.497681 11.8347 1.49304L12.1315 2.94729C12.2111 3.33714 12.6748 3.50568 12.9867 3.25811L14.1503 2.33458C15.743 1.07036 17.9254 2.89885 16.9551 4.6846L16.2463 5.98911C16.0563 6.33881 16.3031 6.76558 16.7014 6.77612L18.1872 6.81545C20.2212 6.86928 20.7159 9.67068 18.823 10.4159L17.4403 10.9603C17.0696 11.1062 16.9839 11.5915 17.2822 11.8552L18.3951 12.839C19.9186 14.1857 18.4941 16.6492 16.5644 16.0052L15.1547 15.5347C14.7768 15.4086 14.3987 15.7253 14.4575 16.1188L14.6767 17.5867C14.9768 19.5961 12.2997 20.5691 11.236 18.8371L10.459 17.572C10.2507 17.2328 9.75718 17.2328 9.54888 17.572L8.77185 18.8371C7.70817 20.5691 5.03109 19.5961 5.33119 17.5867L5.55042 16.1188C5.60919 15.7253 5.23112 15.4086 4.85322 15.5347L3.4435 16.0052C1.51375 16.6492 0.0893017 14.1857 1.61277 12.839L2.72568 11.8552C3.02402 11.5915 2.93832 11.1062 2.56764 10.9603L1.18487 10.4159C-0.708007 9.67068 -0.213301 6.86928 1.82068 6.81545L3.30653 6.77612C3.70484 6.76558 3.95161 6.33881 3.76159 5.98911L3.05277 4.6846C2.08247 2.89885 4.26485 1.07036 5.85763 2.33458L7.02117 3.25811C7.33308 3.50568 7.79685 3.33714 7.87641 2.94729L8.17321 1.49304Z" fill="#FF3B01"/>
  </symbol>

  <symbol id="icon-blue-12-star" viewBox="0 0 21 21">
    <path d="M10.3154 0.000222234C10.8771 0.0081577 11.326 0.469793 11.3184 1.03147L11.2432 6.39085L13.9883 1.78636C14.276 1.30368 14.9011 1.14613 15.3838 1.43382C15.8661 1.72163 16.0239 2.34583 15.7363 2.82835L12.9912 7.43186L17.6719 4.81663C18.1623 4.54271 18.7815 4.7179 19.0557 5.20823C19.3298 5.69871 19.1545 6.31883 18.6641 6.593L14.0801 9.1555H19.333C19.8948 9.15562 20.3506 9.61126 20.3506 10.1731C20.3506 10.7349 19.8948 11.1905 19.333 11.1907H13.9727L18.6152 13.8713C19.1018 14.1523 19.2682 14.7744 18.9873 15.261C18.7063 15.7474 18.0842 15.9139 17.5977 15.633L12.9551 12.9524L15.6357 17.5959C15.9165 18.0825 15.7502 18.7047 15.2637 18.9856C14.7771 19.2665 14.155 19.0991 13.874 18.6125L11.1387 13.8752L11.0635 19.3459C11.0554 19.9075 10.5939 20.3567 10.0322 20.3489C9.4707 20.3409 9.02176 19.8791 9.0293 19.3176L9.10352 13.9553L6.35938 18.5608C6.07171 19.0433 5.44745 19.2018 4.96484 18.9143C4.4823 18.6267 4.32397 18.0024 4.61133 17.5198L7.35645 12.9133L2.67676 15.5295C2.18647 15.8033 1.56718 15.628 1.29297 15.1379C1.01882 14.6475 1.19417 14.0274 1.68457 13.7532L6.26855 11.1907H1.01758C0.455729 11.1906 -2.45599e-08 10.7349 0 10.1731C2.49941e-05 9.61123 0.455744 9.15556 1.01758 9.1555H6.37793L1.73633 6.47581C1.24979 6.19482 1.08333 5.57178 1.36426 5.08518C1.64533 4.599 2.26747 4.43234 2.75391 4.71311L7.39551 7.39378L4.71582 2.7512C4.43497 2.26459 4.60229 1.64248 5.08887 1.36155C5.57542 1.08081 6.19758 1.24715 6.47852 1.73362L9.20801 6.46116L9.28418 1.00315C9.29213 0.441425 9.75367 -0.00758007 10.3154 0.000222234Z" fill="#ADD0EE"/>
  </symbol>

</svg>
