<svg width="100" height="100" viewBox="0 0 100 100" fill="none" xmlns="http://www.w3.org/2000/svg">
<rect width="100" height="100" fill="#ADD0EE"/>
<path d="M52.4459 17.0891L83.1561 39.0234C84.4701 39.962 85.25 41.4774 85.25 43.0922V82C85.25 84.7614 83.0114 87 80.25 87H19.25C16.4886 87 14.25 84.7614 14.25 82V43.0729C14.25 41.4688 15.0196 39.9622 16.3191 39.022L46.6089 17.1069C48.3488 15.8481 50.6983 15.8409 52.4459 17.0891Z" fill="#032F98"/>
<path d="M72.25 13H28.25C25.4886 13 23.25 15.2386 23.25 18V45.526C23.25 46.1637 23.5541 46.7631 24.0686 47.1398L45.9208 63.1368C46.6232 63.651 47.5774 63.6518 48.2807 63.1389L49.0715 62.5622C49.7737 62.0501 50.7263 62.0501 51.4285 62.5622L52.2038 63.1276C52.9145 63.6459 53.8804 63.6391 54.5837 63.1107L76.4513 46.6811C76.9542 46.3033 77.25 45.7111 77.25 45.0821V18C77.25 15.2386 75.0114 13 72.25 13Z" fill="#F7F4E1"/>
<path d="M58.2995 49.4382C58.2995 51.1461 55.4759 52 49.8289 52C44.9519 52 41.0873 50.7263 38.2353 48.1789C35.4118 45.6026 34 41.9553 34 37.2368C34 31.7658 35.6542 27.3658 38.9626 24.0368C42.2995 20.6789 46.6774 19 52.0963 19C56.2888 19 59.6542 20.2592 62.1925 22.7776C64.7308 25.2961 66 28.4658 66 32.2868C66 36.1079 65.1159 38.9592 63.3476 40.8408C61.6078 42.7224 59.4688 43.6632 56.9305 43.6632C56.0463 43.6632 55.1765 43.475 54.3209 43.0987C53.4938 42.7224 52.8806 42.3026 52.4813 41.8395C51.1408 43.0263 49.5437 43.6197 47.6898 43.6197C45.8645 43.6197 44.4528 43.1276 43.4545 42.1434C42.4848 41.1592 42 39.6684 42 37.6711C42 34.5158 43.098 31.8526 45.2941 29.6816C47.4902 27.5105 49.9287 26.425 52.6096 26.425C54.8627 26.425 56.246 26.8737 56.7594 27.7711C57.016 28.2342 57.1444 28.7263 57.1444 29.2474C57.1444 29.7395 56.7451 32.9237 55.9465 38.8L57.7433 38.8868C58.1996 38.8868 58.6274 38.7132 59.0267 38.3658C59.426 38.0184 59.7397 37.6276 59.9679 37.1934C60.5668 36.1513 60.8663 34.5737 60.8663 32.4605C60.8663 29.6816 60.0392 27.4816 58.385 25.8605C56.7308 24.2105 54.549 23.3855 51.8396 23.3855C47.8182 23.3855 44.6239 24.6447 42.2567 27.1632C39.918 29.6816 38.7487 32.9671 38.7487 37.0197C38.7487 43.9092 42.8128 47.3539 50.9412 47.3539C53.451 47.3539 55.4759 47.0934 57.016 46.5724C57.1586 46.7171 57.3725 46.9921 57.6578 47.3974C58.0856 48.15 58.2995 48.8303 58.2995 49.4382ZM50.9412 31.5487C50.3137 31.5487 49.672 32.1132 49.016 33.2421C48.3886 34.3711 48.0463 35.6882 47.9893 37.1934C47.9893 38.2645 48.4599 38.8 49.4011 38.8C49.943 38.8 50.328 38.6697 50.5562 38.4092L51.4118 32.2C51.4688 31.7658 51.3119 31.5487 50.9412 31.5487Z" fill="#032F98"/>
<path d="M46.1009 63.14L15.8378 41.1535C15.1767 40.6733 14.25 41.1455 14.25 41.9626V82C14.25 84.7614 16.4886 87 19.25 87H80.25C83.0114 87 85.25 84.7614 85.25 82V41.9788C85.25 41.1587 84.3171 40.6873 83.6569 41.1737L53.8597 63.1266C53.1804 63.6271 52.2601 63.6474 51.5594 63.1775L51.093 62.8647C50.4191 62.4128 49.539 62.4128 48.8651 62.8647L48.3904 63.183C47.6937 63.6502 46.7795 63.6331 46.1009 63.14Z" fill="#032F98"/>
</svg>
