<svg width="100" height="100" viewBox="0 0 100 100" fill="none" xmlns="http://www.w3.org/2000/svg">
<g clip-path="url(#clip0_714_160)">
<rect width="100" height="100" rx="15.26" fill="white"/>
<path d="M0 10.5263C0 4.71279 4.71279 0 10.5263 0H89.4737C95.2872 0 100 4.71279 100 10.5263V89.4737C100 95.2872 95.2872 100 89.4737 100H10.5263C4.71279 100 0 95.2872 0 89.4737V10.5263Z" fill="#2867B2"/>
<path d="M31.4107 22.7586C31.4107 17.9647 27.5039 14.0744 22.7018 14.0744C17.8783 14.0744 13.9875 17.9647 13.9875 22.7586C13.9875 27.5577 17.8783 31.4481 22.7018 31.4481C27.5039 31.4481 31.4107 27.5577 31.4107 22.7586ZM68.4518 36.8351C83.663 36.8351 86.4718 46.8107 86.4718 59.7892V86.2191H71.4524L71.4478 61.5215C71.3965 56.1705 70.7856 50.0102 63.6496 50.0102C55.8308 50.0102 54.6369 56.1008 54.6369 62.3881V86.2191H39.6388V38.0309H54.0346V44.6158H54.2425C56.2412 40.8264 61.1446 36.8351 68.4518 36.8351ZM30.2189 38.0314V86.2196H15.1836V38.0314H30.2189Z" fill="white"/>
</g>
<defs>
<clipPath id="clip0_714_160">
<rect width="100" height="100" rx="15.26" fill="white"/>
</clipPath>
</defs>
</svg>
